<svg width="64" height="38" viewBox="0 0 64 38" fill="none" xmlns="http://www.w3.org/2000/svg">
    <path d="M42.0753 28C25.5993 28 6.27592 9.58705 1.90653 0.938625C1.68384 0.497847 1.2999 0.162114 1.01891 0.568217C-0.242564 2.39135 0.691411 4.96159 1.98907 6.75914C14.4378 24.0035 27.5222 28.8198 34.0753 30.5C40.9653 32.2665 51.242 31.8333 55.5753 30.5L54.2225 32.7547C53.2323 34.405 53.373 36.4971 54.5753 38L63.7708 25.4167C63.9618 25.1553 64.0145 24.8176 63.9121 24.5104L63.5175 23.3268C63.252 22.53 62.5168 21.984 61.6773 21.9601L47.948 21.5678C46.7083 21.5324 45.7356 22.6221 45.911 23.8498L45.9634 24.2171C46.029 24.676 46.4013 25.0296 46.8629 25.0716L57.0753 26C52.0753 27.5 48.4756 28 42.0753 28Z" fill="#CFCECE"/>
</svg>
