<svg width="37" height="46" viewBox="0 0 37 46" fill="none" xmlns="http://www.w3.org/2000/svg">
<rect x="17.752" y="39.8208" width="2.5841" height="5.49108" fill="black"/>
<path d="M36.8796 19.0306C36.8796 28.4611 28.748 37.5776 18.8096 37.5776C8.87124 37.5776 0.889648 28.4611 0.889648 19.0306C0.889648 9.60007 8.94628 0.402832 18.8846 0.402832C28.823 0.402832 36.8796 9.60007 36.8796 19.0306Z" fill="black"/>
<path d="M6.47808 8.21631C8.534 10.3367 12.4645 15.6956 11.739 20.1675C11.0135 24.6394 7.92944 28.3275 6.47808 29.6126" stroke="white" stroke-width="1.57959"/>
<path d="M30.5488 8.21631C28.4929 10.3367 24.5624 15.6956 25.2879 20.1675C26.0133 24.6394 29.0974 28.3275 30.5488 29.6126" stroke="white" stroke-width="1.57959" stroke-linejoin="round"/>
</svg>
