<svg xmlns="http://www.w3.org/2000/svg">
    <symbol id="logo" viewBox="0 0 1040 339" fill="none">
        <g clip-path="url(#clip0_516_8082)">
            <path d="M361.7 162.6C362.2 161.5 362.4 160.3 362.3 159.1C362.3 150 362.7 140.9 362.2 131.9C360.4 103.3 361.9 74.6001 361.1 46.0001C360.9 36.6001 360.9 27.2001 360.8 17.8001C360.8 14.1001 360.3 10.8003 360.8 7.0003C360.8 5.9003 360.8 3.5003 363 3.0004C364.5 3 362.5 3 364.1 3.0001C365.3 3.2001 365.5 4.3001 365.6 5.3001C365.7 6.2001 365.7 7.1001 365.7 8.1001C365.7 61.3001 365.7 114.4 365.7 167.6C365.7 171.9 365.6 171.9 361.4 171.9C358 171.9 354.6 171.9 351.2 171.9C349.8 172 348.5 171.1 348 169.8C345.8 164.9 344.5 159.7 342.4 154.8C340.7 150.9 339.4 146.9 337.6 143.1C336.4 140.6 335.4 138 334.4 135.4C333.4 132.8 332.6 129.9 331.3 127.4C329.8 124.2 328.9 120.8 327.5 117.5C324.8 111.3 322.8 104.9 320 98.7001C317.9 94.1001 316.4 89.2001 314.5 84.4001C312.7 79.9001 310.8 75.4001 309 70.9001C306.6 64.8001 304.2 58.6001 301.8 52.5001C299.9 47.6001 298.3 42.5001 296.1 37.7001C294.3 33.7001 293.2 29.5001 291.1 25.6001C290.2 24.0001 289.6 22.2001 288.7 20.2001C287.9 21.5001 288.2 22.7001 288.2 23.9001C288.2 71.6001 288.2 119.2 288.2 166.9C288.2 171.5 288 171.7 283.4 171.7C280.2 171.7 277.1 171.6 273.9 171.7C271.6 171.8 270.5 170.5 269.8 168.8C267.8 163.8 266 158.8 264.1 153.8C261.8 147.6 259.3 141.6 256.9 135.5C254.5 129.4 251.8 123.6 249.6 117.5C246.5 108.8 243.1 100.2 239.7 91.6001C237.7 86.5001 235.6 81.5001 233.6 76.5001C230.6 69.2001 227.3 62.1001 224.9 54.7001C222.3 46.6001 218.8 38.9001 215.7 31.1001C213.5 25.7001 211.6 20.0001 208.4 15.0001C208.1 18.5001 207.7 21.9001 208.4 25.3001C208.8 26.8001 208.9 28.4001 209 30.0001L209.2 133.5C210 151.5 209 156.4 209.2 168C209.2 169 208.8 170 208 170.8C206.8 171.8 207 171.9 206 170.8C205.9 170.7 205.8 170.6 205.7 170.4C204.9 169.1 205.1 167.7 205.1 166.3C205.1 113.6 205.1 61.0001 205.1 8.3001C205.1 7.5001 205.1 6.6001 205.1 5.8001C205.4 4.0001 206.2 2.8001 208.4 2.8001C211.8 2.9001 215.2 2.8001 218.6 2.8001C220.5 2.8001 221.5 3.7001 222.1 5.6001C223.1 8.7001 224.2 11.8001 225.6 14.8001C227.2 18.7001 228.5 22.8001 230.1 26.8001C231.6 30.4001 233 34.1001 234.5 37.8001C236 41.5001 237.7 45.2001 238.9 49.1001C240.4 54.0001 242.9 58.5001 244.7 63.3001C247.5 70.7001 250.6 78.1001 253.1 85.7001C254.6 90.3001 256.9 94.6001 258.7 99.1001C260.6 103.9 262.4 108.8 264.4 113.5C266.3 117.8 267.7 122.3 269.3 126.6C271.7 133 274.6 139.2 276.9 145.6C278.7 150.7 281.4 155.5 282.8 160.8C283 161.6 283.5 162.8 284.6 162.5C285.4 162.3 285.1 161.2 285.1 160.5C285.1 154.8 285.8 149.1 284.9 143.5C282.3 125.4 284.1 107.2 283.7 89.0001C283.3 70.8001 283.9 52.7001 283.4 34.5001C283.1 25.6001 282.5 16.6001 282.2 7.6001C282.1 3.0001 282.6 2.6001 287.2 2.6001H293.4C297.9 2.6001 299.5 3.7001 300.5 8.2001C300.9 9.5001 301.4 10.8001 302 12.1001C304.1 17.2001 306.2 22.3001 308 27.5001C309.1 30.7001 310.6 33.9001 311.9 37.1001C314.7 44.0001 317.4 50.9001 320.1 57.7001C322.7 64.2001 325.5 70.6001 327.8 77.2001C329.1 80.9001 330.3 84.7001 331.8 88.3001C333.3 91.9001 334.8 95.4001 336.1 99.1001C337.4 102.8 339 106 340.4 109.5C342 113.5 343.7 117.5 344.9 121.5C346.7 127.3 349.6 132.5 351.3 138.3C352.1 140.9 353.7 143.3 354.6 146C356 150.2 358 154.2 359.5 158.4C360.2 159.9 361.3 160.8 361.7 162.6Z" fill="#9B8734"/>
            <path d="M746.3 87.5C746.3 61.3 746.3 35.2 746.3 8.99999C746.3 8.19999 746.3 7.49999 746.3 6.79999C746.4 3.09999 746.7 2.79999 750.3 2.79999C768.4 2.79999 786.5 2.89999 804.5 2.69999C810.3 2.59999 815.3 4.29999 820.4 6.59999C825.6 8.99999 830.4 12 834.1 16.5C840.6 24.4 843.1 33.5 840.5 43.3C838.6 50.7 834 57.1 827.7 61.3C825 63.2 821.9 64.5 819.2 66.3C817.5 67.4 815.2 67.6 813.1 68.2C808.7 69.4 804.2 69.4 799.8 69.3C799.1 69.3 798.1 69 797.8 69.8C797.5 70.6 798.6 70.9 799 71.4C806.5 78 813.6 85 819.4 93.2C824.4 100.2 828.7 107.6 832.1 115.5C833.6 118.7 834.7 122.1 835.5 125.5C836.1 128.1 836.3 131 837.6 133.5C837.8 134 838 134.4 838 134.9C839.9 145.9 841.8 157 841.2 168.2C841 171.4 840.9 171.7 837.8 171.7C835 171.7 832.1 171.6 829.3 171.7C827.2 171.8 826.5 170.9 826.6 168.9C826.7 166.7 826.4 164.4 826.7 162.2C827.5 155 825.2 148.2 824.8 141.1C824.7 137.8 824 134.5 822.7 131.5C821.7 129.4 821.9 127 821.5 124.7C820.1 118.2 816.9 112.4 814.8 106.1C812.6 99.4 808.7 93.6 805 87.8C800.8 81.3 795.4 75.6 790 69.9C789.2 69 788.2 69.3 787.2 69.3C779.5 69.3 771.9 69.3 764.2 69.3C760.9 69.3 760.8 69.4 760.8 72.6C760.8 103.8 760.8 134.9 760.8 166.1C760.8 172.1 761.4 171.7 755.1 171.7C753.2 171.7 751.3 171.6 749.3 171.7C747.1 171.8 746 171 746.2 168.7C746.3 168 746.2 167.4 746.2 166.7L746.3 87.5ZM760.9 35.9V62.9C760.9 66.2 761 66.3 764.2 66.3C778 66.3 791.9 66.3 805.7 66.3C810.1 66.3 813.6 64.3 816.8 61.6C820 58.9 821.9 55.2 823.4 51.2C825.2 46.7 826.4 42 826.7 37.2C827 31.7 825.4 26.5 823.6 21.4C823.3 20.5 822.7 19.8 822.4 18.9C820.9 13.5 817 10.2 812.6 7.29999C810.9 6.19999 809 5.69999 807 5.79999C792.7 5.79999 778.3 5.79999 764 5.69999C761.6 5.69999 760.8 6.49999 760.8 8.89999C761 17.9 760.9 26.9 760.9 35.9Z" fill="#9B8734"/>
            <path d="M950 174.3C947.2 174.3 944.3 174.1 941.5 174.3C934.8 174.8 928.8 172.1 922.5 170.8C915 169.2 908.5 165.1 902.1 161.3C894.3 156.8 887.4 150.9 881.6 143.9C876.5 137.8 872.6 131.1 868.5 124.4C867.7 122.9 867 121.2 866.7 119.5C865.7 115.6 864.2 111.7 863.1 107.8C860.1 97.4998 859.8 86.9998 861 76.5998C861.6 71.8998 862.7 67.1998 864.3 62.7998C865.3 59.9998 866.3 57.0998 867.2 54.1998C869.1 48.1998 872.6 43.0998 876 37.8998C879.2 32.8998 883.7 28.9998 887.5 24.4998C890.1 21.4998 893.5 19.0998 896.8 16.7998C902.5 12.7998 908.9 10.0998 914.8 6.59983C916.8 5.39983 919 5.09983 921 4.39983C931 0.799833 941.7 -0.600167 952.3 0.0998327C954.5 0.199833 956.6 0.199833 958.8 0.0998327C962.9 -0.200167 966.6 1.49983 970.5 2.19983C973.2 2.69983 975.7 3.59983 978.3 4.29983C981.4 5.09983 984.4 6.29983 987.2 7.79983C993.2 11.1998 999.5 13.9998 1004.9 18.1998C1010.1 22.3998 1014.8 27.0998 1019.1 32.0998C1022.6 36.1998 1025.7 40.4998 1028.3 45.1998C1031 49.5998 1033.1 54.3998 1034.7 59.2998C1036.1 64.2998 1037.8 69.3998 1038 74.7998C1038.2 79.9998 1039.9 85.0998 1039.2 90.3998C1038.2 97.6998 1037.8 105 1035.6 112.1C1033.9 117.9 1031.6 123.5 1028.6 128.7C1025.4 134 1022.1 139.4 1017.6 143.9C1014.4 147.2 1011.7 151 1008.1 154C1003.7 157.6 998.7 160.3 993.9 163.3C991.2 165 987.9 165.7 985.5 167.9C984.2 169.1 982.2 169.2 980.5 169.8C975.7 171.3 970.5 172.1 965.7 173.9C965 174.1 964.2 174.1 963.5 174.1C959 174.1 954.5 174.1 950 174.1V174.3ZM1023.7 88.2998C1023.6 83.2998 1022.9 79.1998 1022.6 75.1998C1022 69.1998 1020.8 63.1998 1019 57.3998C1017.1 50.7998 1014.3 44.4998 1010.8 38.5998C1007.6 33.3998 1004.3 28.1998 1000.1 23.7998C994.7 18.3998 988.6 13.8998 981.9 10.2998C977.2 7.69983 972.1 6.19983 967.1 4.59983C963.7 3.59983 960.4 3.49983 957.1 3.29983C952.4 2.99983 947.7 3.09983 942.9 3.29983C939.2 3.39983 935.5 3.29983 932.2 4.89983C930 5.99983 927.5 5.49983 925.3 6.69983C920.6 8.99983 915.9 11.5998 911.5 14.3998C907 17.3998 902.4 20.3998 899.1 24.6998C895.3 29.6998 891.6 34.6998 888.2 39.9998C884.7 45.4998 882.8 51.3998 880.7 57.2998C879.7 60.0998 879 62.9998 878.6 65.8998C877.6 72.2998 876.2 78.5998 876.4 85.0998C876.5 89.4998 875.9 93.9998 876.7 98.2998C877.8 104.3 878.4 110.4 880.3 116.3C881.4 119.8 882.4 123.4 883.8 126.8C887.1 134.2 891.3 141.2 896.4 147.5C902 154.6 909.4 159.7 917.1 164.3C921.9 167.1 927.2 169.2 932.7 170.3C938.7 171.5 944.7 172.3 950.8 172.5C955 172.7 959.5 171.7 963.8 171C966.5 170.7 969.2 170.1 971.8 169.3C976.4 167.7 980.8 165.6 984.9 162.9C989.3 160 993.8 157.2 997.7 153.6C1000.7 150.6 1003.5 147.4 1006 144C1009.6 139.3 1012.7 134.2 1015.2 128.8C1017.6 123.6 1019.5 118.1 1020.8 112.5C1021.3 110.5 1022.4 108.4 1022.3 106.5C1021.7 100.1 1024.8 93.8998 1023.7 88.2998Z" fill="#9B8734"/>
            <path d="M629.8 86.9998V6.7998C629.8 2.7998 629.8 2.7998 633.8 2.7998C652.6 2.7998 671.5 2.7998 690.3 2.7998C694.2 2.7998 697.6 4.2998 701.2 5.4998C705.2 6.7998 708.9 8.7998 712.2 11.3998C717 14.9998 720.7 19.7998 723 25.3998C724.4 28.9998 726 32.5998 725.8 36.5998C725.5 42.5998 723.2 47.7998 719.9 52.5998C717.2 56.7998 713.5 60.2998 709.2 62.7998C704.9 65.2998 700.6 67.5998 695.6 68.3998C682.4 70.5998 669 68.8998 655.8 69.3998C652.8 69.4998 649.8 69.4998 646.8 69.3998C645.1 69.3998 644.3 70.0998 644.4 71.7998C644.4 72.5998 644.4 73.2998 644.4 73.9998C644.4 105.1 644.4 136.1 644.4 167.2C644.4 171.8 644.4 171.8 639.7 171.8C637.5 171.8 635.2 171.7 632.9 171.8C630.6 171.9 629.7 171 629.8 168.7C629.9 165 629.8 161.4 629.8 157.7V86.9998ZM644.3 36.0998V62.8998C644.3 66.1998 644.4 66.2998 647.6 66.2998C661.7 66.2998 675.8 66.2998 689.8 66.2998C693.4 66.2998 696.9 64.8998 699.4 62.3998C701.7 60.3998 703.6 57.9998 705.2 55.2998C707.5 51.3998 709 46.9998 709.5 42.4998C709.9 37.0998 710.3 31.5998 708.7 26.1998C707.2 20.8998 705.1 16.0998 701.5 11.9998C697.9 7.8998 693.8 5.5998 688.1 5.7998C674.5 6.0998 660.9 5.8998 647.4 5.8998C644.4 5.8998 644.2 6.0998 644.2 9.1998C644.3 18.0998 644.3 27.0998 644.3 36.0998Z" fill="#9B8734"/>
            <path d="M704.6 287.3C704.2 305.3 696 319.8 680.6 330.1C673.1 335.2 664.2 338.1 655.1 338.5C645.1 338.9 635.7 337.6 626.9 332.9C623.7 331.2 620.4 329.6 617.7 327.1C616.5 326 615.6 326 614.3 327C607.1 332.5 599.1 336.8 590 338C577.3 339.7 565 338.5 553.4 331.7C545.9 327.1 539.5 321 534.6 313.8C531.9 310 530.4 305.5 529.1 301C526.7 293.4 526.2 285.4 527.8 277.6C533 250.4 558.2 231.7 585.7 234.6C596.3 235.6 605.6 239.9 614.1 246C615 246.9 616.5 246.9 617.4 246C623.8 241.6 630.5 237.8 638.2 236C654.5 231.9 671.9 235.6 685.1 246C690.5 250.2 695 255.5 698.1 261.6C700.6 266.4 702.6 271.4 703.8 276.7C704.6 280 704.1 283.3 704.6 287.3ZM580.8 236.3C571.9 236.4 566.8 237.6 561.6 240.3C547.7 247.5 540.6 259.6 537.5 274.3C535.2 285.1 536 296.4 539.7 306.8C543.9 318.9 551.5 328.2 563.2 333.5C570.7 337 579.2 338 587.3 336.5C596.2 334.9 604.4 330.5 610.6 323.9C611.8 322.7 611.7 321.7 610.7 320.5C604.8 313.4 600.6 305.6 598.9 296.4C597.4 288.2 597.8 279.8 600.1 271.8C602.1 264.8 605.7 258.4 610.6 253C611.9 251.5 611.9 250.4 610.5 249C601.9 240.6 592.1 235.5 580.8 236.3ZM694.8 286.7C695.2 280.2 694.3 273.6 692.2 267.4C688.1 255.7 681.3 246.4 670.2 240.4C661.7 235.8 652.6 235.6 643.5 236.9C640.8 237.1 638.1 237.8 635.6 238.9C630.9 241.2 626.5 244.1 622.6 247.6C619.5 250.4 619.5 251 622 254.1C628.9 262.3 633.1 272.5 633.8 283.3C634.7 296.8 630.4 308.9 621.9 319.4C619.6 322.2 619.5 322.7 622.4 325.3C632.7 334.7 644.5 339.1 658.6 336.6C672.2 334.2 681.8 326.5 688.5 314.7C693.2 306.1 695.4 296.4 694.8 286.7ZM624.2 287.2C624.5 277 621.9 266.9 616.8 258.2C616.2 257.1 615.7 256.3 614.8 257.9C607.4 270.9 605.2 286.2 608.9 300.8C610.2 305.8 612.1 310.6 614.6 315.1C615.3 316.5 616 316.6 616.8 315.1C617 314.6 617.5 314.1 617.7 313.6C621.9 305.1 624.7 296.4 624.2 287.2Z" fill="#9B8734"/>
            <path d="M485.1 174.4C482.8 174.4 480.4 174.4 478.1 174.4C471.3 174.4 464.5 173.1 458.1 170.7C456.2 170 454.3 170 452.4 169.2C450 168.2 448.3 166.1 445.8 165.4C444.8 165 444.3 164 444.4 162.9C444.4 160.1 444.4 157.2 444.4 154.4C444.4 153.7 444.4 152.8 445.3 152.5C446.2 152.2 446.7 152.7 447.3 153.2C450.7 156 453.9 159 457.5 161.5C463.5 165.5 469.6 169.3 477 170.1C480.9 170.5 484.8 171.5 488.8 171.3C495.5 171 502.1 169.3 508.1 166.5C515.6 163.3 521 156.5 522.5 148.4C524.1 140.5 523.9 132.4 519.6 124.9C515.1 117.2 508.9 111.4 502.2 105.9C497.1 101.6 491 98.8999 485.6 95.1999C481.2 92.0999 476.5 89.5999 472.1 86.5999C468.1 83.8999 463.9 81.2999 460.4 77.9999C456.9 74.6999 452.8 71.1999 449.8 67.0999C446.2 62.1999 443.3 56.7999 441.2 50.9999C439 45.0999 439.7 39.0999 440.2 33.2999C440.6 28.8999 442.7 24.5999 445.1 20.7999C448.8 14.6999 454.3 9.79989 460.7 6.59989C465 4.59989 469.2 2.49989 474 1.39989C483.2 -0.60011 492.5 0.0998897 501.6 0.59989C508.1 1.09989 514.5 2.59989 520.5 5.29989C522.9 6.29989 525.2 7.69989 527.7 8.59989C529.5 9.09989 530.6 10.7999 530.4 12.5999C530.3 14.7999 530.4 16.8999 530.4 19.0999C530.4 19.7999 530.4 20.4999 529.7 20.8999C529 21.2999 528.5 20.5999 528 20.1999C523.8 15.6999 518.3 12.7999 513.1 9.59989C509.6 7.39989 505.5 6.19989 501.5 4.89989C494.8 2.69989 488 3.39989 481.2 3.79989C476.6 4.19989 472.2 5.59989 468.2 7.99989C461.5 11.6999 456.2 17.4999 453.1 24.4999C450.7 29.5999 450.1 35.2999 451.4 40.7999C453 46.8999 455.7 52.6999 460.5 57.4999C463.5 60.3999 465.9 63.8999 469.1 66.6999C472.9 70.0999 477.2 72.5999 481.4 75.2999C485.6 77.9999 489.8 80.2999 493.9 82.9999C497.7 85.3999 501.3 88.0999 505.3 90.2999C507.6 91.6999 509.7 93.1999 511.7 94.9999C513.8 96.6999 515.8 98.5999 517.9 100.4C520.7 102.9 523.2 105.6 525.3 108.7C527.7 112.1 530.2 115.3 531.8 119.2C532.6 121.1 533 123.1 533.7 125.1C535.3 129.5 536.4 134.2 535.5 139C534.2 145.5 532.4 152.2 528.2 157.4C525.3 161.1 521.8 164.3 517.9 167C513.9 169.6 509.6 171.6 505.1 172.9C500.7 174.3 496 175.4 491.2 174.8C489.3 174.3 487.2 174.3 485.1 174.4Z" fill="#9B8734"/>
            <path d="M108.5 88.1V8.30001C108.5 3.70001 109.1 3.10001 113.7 3.10001L172.6 3.8002C173.8 3.7002 175.6 3.8002 177.7 3.40001C179 3.90001 179.1 4.90001 179 6.00001C178.9 7.10001 178.1 6.79981 177.1 6.79981C170 6.79981 164.1 6.29981 156.1 6.00001C146.2 4.20001 136.6 5.8002 126.6 5.3002C124.1 5.1002 124 7.70001 124 9.30001V65.3C124 70.1 124 75 124 79.8C124 83.6 124 83.6 127.7 83.6H171.2C172.9 83.6 175.3 83.5 175.3 85.3C175.3 87.1 172.8 86.2 171.5 86.2C156.8 86.3 142 86.3 127.3 86.2C124.8 86.2 124 86.9 124 89.4C124.1 115.2 124 140.9 124.1 166.6C124.1 170 135.1 170.8 138.5 170.5C154 169.132 157.5 168.8 172.4 168.5C174.4 168.5 176.2 168.3 178.3 168.5C180.1 168.7 181.3 168.5 181.3 170.2C181.4 172.1 179.7 172 178.3 172C156.2 172 134.1 172 112.1 172C109 172 108.5 171.4 108.5 168.3C108.5 141.6 108.5 114.9 108.5 88.1Z" fill="#9B8734"/>
            <path d="M414.8 87.6998V167.4C414.8 171.4 414.5 171.7 410.6 171.7C407.8 171.7 404.9 171.7 402.1 171.7C400.3 171.7 399.3 170.9 399.4 168.9C399.4 168.2 399.4 167.4 399.4 166.7C399.4 114 399.4 61.1998 399.4 8.4998C399.4 7.5998 399.4 6.6998 399.5 5.7998C399.7 3.9998 400.7 2.7998 402.6 2.7998C405.7 2.7998 408.8 2.7998 411.8 2.7998C413.8 2.7998 414.8 3.8998 414.9 5.8998C414.9 6.7998 414.9 7.6998 414.9 8.6998L414.8 87.6998Z" fill="#9B8734"/>
            <path d="M511.4 286.5V333C511.4 336.8 511.4 336.8 507.7 336.8H507.5C502.8 336.8 502.8 336.8 502.8 332.2C502.8 317.8 502.7 303.4 502.8 289C502.8 286.5 502 285.7 499.5 285.7C491.3 285.8 483 285.8 474.8 285.7C472.5 285.7 471.8 286.5 471.8 288.7C471.9 303.2 471.8 317.7 471.8 332.2C471.8 336.5 471.5 336.8 467.3 336.8C466.7 336.8 466.1 336.8 465.5 336.8C463.1 337 462.3 335.9 462.3 333.6C462.3 302.2 462.3 270.8 462.3 239.4C462.3 237 463.2 236.2 465.5 236.2C471.7 236.2 471.7 236.1 471.7 242.4C471.7 255.1 471.7 267.9 471.7 280.6C471.7 283.7 471.9 283.8 475 283.8C483.2 283.8 491.5 283.7 499.7 283.8C502 283.8 502.7 283 502.7 280.8C502.6 267.2 502.7 253.6 502.7 240.1C502.7 236.3 502.8 236.3 506.4 236.3C511.4 236.3 511.4 236.3 511.4 241.1V286.5Z" fill="#9B8734"/>
            <path d="M398.7 234.2C416.5 235 432 242.5 442.6 259C444.2 261.5 445.6 264 446.8 266.6C447.8 268.6 448 270.5 445.3 271.4C444.8 271.6 444.4 271.8 444 272.1C441.4 273.6 441.1 273.5 440 270.8C437.7 264.8 434.7 259.1 431 253.9C425.9 246.7 419.4 241.1 411.1 238.2C403.3 235.4 395 235.4 386.8 237.2C380.5 238.5 375.2 241.8 370.4 245.8C364.2 251.1 359.6 257.9 357 265.6C354.4 272.8 353.2 280.5 353.4 288.1C353.7 296.9 355.4 305.5 359.5 313.1C367.9 328.6 381 337.5 399.2 336.9C411.4 336.6 423 331.5 431.6 322.7C436.9 317.5 441.1 311.2 443.9 304.4C444.3 303.5 444.1 301.5 446.1 302.3C448.1 303.1 447.3 304.6 446.8 305.9C443.9 312.6 439.6 318.7 434.3 323.8C426.9 331.2 417.3 336.1 406.9 337.7C396 339.4 385.2 338.6 374.8 333.6C364.8 329 356.4 321.4 350.8 311.9C347.3 306.1 345.1 299.6 344.3 292.9C343.3 282.2 344.5 271.7 349.8 262.2C354.1 254.7 359.5 248.2 366.8 243.3C376.2 237.5 386.3 234.5 398.7 234.2Z" fill="#9B8734"/>
            <path d="M306.5 234.2C313.5 234.3 320.4 235.6 327 238.1C330.3 239.3 331.3 241.2 331 244.9C330.8 246.5 330.2 246.9 328.9 245.9C327.4 244.8 325.9 243.5 324.4 242.4C318.2 237.7 310.5 235.6 302.8 236.4C293.5 237.3 286.7 241.9 284.3 251.3C282.3 259.1 285.9 265.4 291.4 271C298.9 278.6 308.7 282.7 317.2 288.9C324.5 294.2 331.2 300.2 333.2 309.5C334.5 315.8 334 322.2 329.9 327.6C325.6 333.4 319.2 337.2 312.1 338.1C305.1 339.2 297.9 338.9 291 337.2C288 336.4 285.1 335.4 282.3 334.1C279.7 333 278.4 328.7 279.6 325.9C280.2 324.5 280.9 325.4 281.5 325.8C284.1 327.8 286.4 330 289.2 331.6C298.6 337.1 308.2 337.8 318.1 333C326 329.1 329.3 317.6 324.8 309.6C321 302.8 315.4 297.8 308.9 293.8C301.8 289.5 294.4 285.6 288.1 280C282.4 274.9 277.8 268.9 276.7 260.9C275.7 253.5 278.2 247.4 283.4 242.2C289.8 236 297.9 234.4 306.5 234.2Z" fill="#9B8734"/>
            <path d="M719.9 286.3V240.3C719.9 236.3 720 236.2 723.9 236.2C728.9 236.2 728.9 236.2 728.9 241.3V331.3C728.9 335.3 729.4 335.8 733.4 335.2C737 334.7 740.6 335 744.1 334.8C748.2 334.6 752.3 334.5 756.3 334.3C757.3 334.3 758.6 334.2 758.6 335.5C758.6 336.8 757.3 336.8 756.3 336.8C745.1 336.8 733.8 336.8 722.6 336.8C720.1 336.8 719.8 335.5 719.8 333.5C719.8 320.2 719.8 306.8 719.8 293.5L719.9 286.3Z" fill="#9B8734"/>
            <rect x="41.5" y="5" width="12" height="167" fill="#9B8734"/>
            <path d="M94.5 4H2V8L41 6.5H54.5L94.5 8V4Z" fill="url(#paint0_linear_516_8082)"/>
            <path d="M181.5 3H114L112 7L128 5.5H141.5L181.5 7V3Z" fill="url(#paint1_linear_516_8082)"/>
            <path d="M181.5 172H114L112 168L128 169.5H141.5L161 169L181.5 168V172Z" fill="url(#paint2_linear_516_8082)"/>
        </g>
        <defs>
            <linearGradient id="paint0_linear_516_8082" x1="48.25" y1="4" x2="48.25" y2="8" gradientUnits="userSpaceOnUse">
                <stop stop-color="#B9AC76"/>
                <stop offset="1" stop-color="#9B8734"/>
            </linearGradient>
            <linearGradient id="paint1_linear_516_8082" x1="135.25" y1="3" x2="135.25" y2="7" gradientUnits="userSpaceOnUse">
                <stop stop-color="#9B8734"/>
                <stop offset="1" stop-color="#9B8734"/>
            </linearGradient>
            <linearGradient id="paint2_linear_516_8082" x1="135.25" y1="172" x2="135.25" y2="168" gradientUnits="userSpaceOnUse">
                <stop stop-color="#9B8734"/>
                <stop offset="1" stop-color="#9B8734"/>
            </linearGradient>
            <clipPath id="clip0_516_8082">
                <rect width="1039.4" height="338.8" fill="white"/>
            </clipPath>
        </defs>
    </symbol>
</svg>
