<svg xmlns="http://www.w3.org/2000/svg">
    <symbol id="logo" viewBox="0 0 1339 440" fill="none">
        <path d="M833.5 218.999H815V2.99854L833.5 6.49864V83.9986L847.569 84.1102C879.687 84.3651 916.938 79.5905 918.802 47.5256C918.932 45.2872 919 42.9457 919 40.5C917.556 33.7614 915.261 28.1207 912.622 23.4637C904.338 8.84365 886.291 5.49859 869.487 5.49859H833.5L815 1.99859L892 1.99854C894 1.99854 900.991 2.89652 905 4.5C915 8.5001 921.933 12.8131 927.5 18.9985C937.039 29.5973 939.078 45.9746 933.932 59.2725C933.519 60.34 933.046 61.4071 932.5 62.4985C928.755 68.8371 920.693 74.512 912.715 78.9485C902.641 84.5506 891.084 86.6383 879.561 86.9105L833.5 87.9985V218.999Z" fill="#9B8734" stroke="#9B8734"/>
        <path d="M985.5 218.999H967V2.99854L985.5 6.49864V83.9986L999.569 84.1102C1031.69 84.3651 1068.94 79.5905 1070.8 47.5256C1070.93 45.2872 1071 42.9457 1071 40.5C1069.56 33.7614 1067.26 28.1207 1064.62 23.4637C1056.34 8.84365 1038.29 5.49859 1021.49 5.49859H985.5L967 1.99859L1044 1.99854C1046 1.99854 1052.99 2.89652 1057 4.5C1067 8.5001 1073.93 12.8131 1079.5 18.9985C1089.04 29.5973 1091.08 45.9746 1085.93 59.2725C1085.52 60.34 1085.05 61.4071 1084.5 62.4985C1080.75 68.8371 1072.69 74.512 1064.71 78.9485C1054.64 84.5506 1043.08 86.6383 1031.56 86.9105L1021.5 87.1481L1030 87.9985C1049.17 100.832 1087.7 145.3 1088.5 220.5H1070.5C1073 193.099 1066.7 128.067 1021.5 87.1481L985.5 87.9985V218.999Z" fill="#9B8734"/>
        <path d="M1021.5 87.1481L985.5 87.9985V218.999H967V2.99854L985.5 6.49864V83.9986L999.569 84.1102C1031.69 84.3651 1068.94 79.5905 1070.8 47.5256C1070.93 45.2872 1071 42.9457 1071 40.5C1069.56 33.7614 1067.26 28.1207 1064.62 23.4637C1056.34 8.84365 1038.29 5.49859 1021.49 5.49859H985.5L967 1.99859L1044 1.99854C1046 1.99854 1052.99 2.89652 1057 4.5C1067 8.5001 1073.93 12.8131 1079.5 18.9985V18.9985C1089.04 29.5973 1091.08 45.9746 1085.93 59.2725C1085.52 60.34 1085.05 61.4071 1084.5 62.4985C1080.75 68.8371 1072.69 74.512 1064.71 78.9485C1054.64 84.5506 1043.08 86.6383 1031.56 86.9105L1021.5 87.1481ZM1021.5 87.1481C1066.7 128.067 1073 193.099 1070.5 220.5C1070.83 220.5 1074.9 220.5 1088.5 220.5C1087.7 145.3 1049.17 100.832 1030 87.9985L1021.5 87.1481Z" stroke="#9B8734"/>
        <path d="M1162 53C1173.53 64.5951 1195.57 93.8986 1191.51 118.352C1187.44 142.806 1170.14 162.973 1162 170" stroke="#9B8734" stroke-width="9.51007"/>
        <path d="M1294 53C1282.47 64.5951 1260.43 93.8986 1264.49 118.352C1268.56 142.806 1285.86 162.973 1294 170" stroke="#9B8734" stroke-width="9.51007" stroke-linejoin="round"/>
        <path d="M231.5 7.49854V1.99854H143V219.999H234V215.999L161 217.499V109.499H227.5V106.499H161V5.49854L231.5 7.49854Z" fill="#9B8734"/>
        <path d="M265.5 219.999H270.5L268 14.4985H269.5L352 219.499H371.5V20.9985H373.5L451 219.999H472V1.99854H466L468 211.999H467L384.5 1.99854H366L368 211.999H367L284.5 1.99854H265.5V219.999Z" fill="#9B8734"/>
        <path d="M0 7.5V2.5V1.5H120.5V7.5L69 5.5V219.5H50.5V5.5L0 7.5Z" fill="#9B8734"/>
        <path d="M534.5 3H518H517.5V219.5H534.5V3Z" fill="#9B8734"/>
        <path d="M404.521 302C414.5 302.5 423.038 307.367 427.22 310.05V316.907C425.079 313.396 418.215 309.502 412.376 306.914C407.292 304.66 401.719 304.087 396.158 304.087C390.727 304.087 385.13 304.139 380.233 306.487C375.689 308.666 371.05 312.485 368.382 318.994C367.722 320.607 367.232 322.165 366.89 323.664C363.657 337.799 378.226 351.718 390.06 360.098C393.115 362.261 395.882 364.114 397.652 365.207C410.033 372.858 419.454 380.413 424.233 386.674C427.107 390.44 430.405 399.892 430.804 403.37C431.401 407.047 430.983 416.31 424.532 423.942C418.08 431.575 409.5 435 402.132 435.868C400.837 435.968 395.786 437.079 386.302 435.868C379.5 435 365.993 430.8 361.812 428.415V418.874H362.409C368.621 427.461 381.524 432.191 387.198 433.483C395.86 434.974 403.625 433.781 409.598 430.8C413.604 428.801 416.582 426.242 418.552 423.902C420.784 421.251 422.307 417.987 423.073 414.606C423.755 411.593 423.983 407.645 422.74 403.37C420.589 395.976 411.888 387.37 407.806 383.991C406.313 382.5 399.742 377.551 385.406 369.68C373.842 363.33 366.035 353.838 362.142 347.588C360.595 345.105 359.133 342.488 358.575 339.616C358.122 337.282 357.846 333.997 358.093 329.653C358.271 326.526 358.979 323.424 360.42 320.643C363.724 314.266 368.38 310.047 373.225 307.23C382.506 301.832 393.798 301.463 404.521 302Z" fill="#9B8734"/>
        <path d="M646.747 3.30065C663.425 4.13266 677.694 12.2311 684.682 16.6964V28.1076C681.105 22.266 669.638 15.7869 659.882 11.4801C651.379 7.72667 642.065 6.77362 632.771 6.77362C623.695 6.77362 614.343 6.85874 606.153 10.77C598.559 14.3965 590.809 20.7501 586.351 31.5805C582.78 40.2579 582.073 48.035 582.925 54.5992C584.797 69.0182 597.927 82.14 609.569 90.8497C618.991 97.8978 629.942 105.205 635.267 108.482C655.959 121.214 671.704 133.785 679.691 144.204C684.494 150.471 690.006 166.199 690.672 171.988C691.67 178.107 690.971 193.52 680.19 206.221C669.408 218.922 655.068 224.622 642.754 226.067C640.591 226.232 632.149 228.081 616.3 226.067C604.932 224.622 582.358 217.632 575.37 213.663V197.787H576.368C586.751 212.076 608.313 219.948 617.797 222.098C632.272 224.578 645.25 222.594 655.233 217.632C663.55 213.499 669.218 207.928 672.293 203.406C674.248 200.532 675.721 197.306 676.824 194.01C678.569 188.792 679.771 180.806 677.195 171.988C673.601 159.683 659.059 145.362 652.238 139.739C649.742 137.258 638.761 129.022 614.802 115.924C598.133 106.811 586.136 93.8081 578.977 83.7313C574.037 76.7779 569.93 68.948 569.23 60.4473C569.036 58.093 568.951 55.3969 569.029 52.3421C569.214 45.1203 570.843 37.9039 574.509 31.6793C579.897 22.5331 587.033 16.2975 594.432 12.0098C609.958 3.01367 628.826 2.40657 646.747 3.30065Z" fill="#9B8734"/>
        <path d="M692.753 370.398C692.753 314.87 732.5 302.906 750.908 302.906L750.908 302.002C726.5 302.002 681.122 323.5 681.122 370.398C681.122 417 723.5 438.995 749.715 438.995C778.047 439.395 821.291 412.581 818.905 370.398C815.775 315.058 772 302.002 751.803 302.002V302.906C771 303.5 807.573 321.876 807.573 370.398C807.573 422.5 767.5 436.685 749.715 436.685C729.5 436.685 692.753 420.716 692.753 370.398Z" fill="#9B8734" stroke="#9B8734"/>
        <path d="M784.631 370.398C784.631 314.87 824.379 302.906 842.787 302.906L842.787 302.002C818.378 302.002 773 323.5 773 370.398C773 417 815.378 438.995 841.594 438.995C869.926 439.395 913.17 412.581 910.784 370.398C907.654 315.058 863.878 302.002 843.681 302.002V302.906C862.878 303.5 901.5 321.876 901.5 370.398C901.5 422.5 859.378 436.685 841.594 436.685C821.378 436.685 784.631 420.716 784.631 370.398Z" fill="#9B8734" stroke="#9B8734"/>
        <path d="M1136.56 110.835C1136.56 21.6639 1200.24 2.45157 1229.61 2.45157V1C1190.66 1 1118 35.523 1118 110.835C1118 185.671 1185.62 220.993 1227.45 220.993C1272.66 221.634 1341.66 178.575 1337.85 110.835C1332.85 21.9663 1262.7 1.00045 1230.47 1V2.45157C1261.1 3.40566 1319.77 32.9158 1319.77 110.835C1319.77 194.504 1255.83 217.283 1227.45 217.283C1195.19 217.283 1136.56 191.639 1136.56 110.835Z" fill="#9B8734" stroke="#9B8734"/>
        <path d="M456 370.399C456 314.87 494 303.5 512.908 303.5V302.002C486 302.002 443.121 322 443.121 370.399C443.121 420.504 484.5 438.5 511.5 438.5C547 438.5 568.851 421.003 578.393 390.747H575C562.5 426 533 436 512.5 435C490.592 434.249 456 420.716 456 370.399Z" fill="#9B8734"/>
        <path d="M513.803 302.002V303.5C533.5 303.5 561.921 319.047 570.5 351.5L577.057 348.5C565.355 311.429 531.081 301.831 513.803 302.002Z" fill="#9B8734"/>
        <path d="M456 370.399C456 314.87 494 303.5 512.908 303.5V302.002C486 302.002 443.121 322 443.121 370.399C443.121 420.504 484.5 438.5 511.5 438.5C547 438.5 568.851 421.003 578.393 390.747H575C562.5 426 533 436 512.5 435C490.592 434.249 456 420.716 456 370.399Z" stroke="#9B8734"/>
        <path d="M513.803 302.002V303.5C533.5 303.5 561.921 319.047 570.5 351.5L577.057 348.5C565.355 311.429 531.081 301.831 513.803 302.002Z" stroke="#9B8734"/>
        <path d="M942.5 305H932.5V434.5H981.5V432L942.5 433V305Z" fill="#9B8734" stroke="#9B8734"/>
        <path d="M609 304.5H598.5V434H609V368.5H650.5V434H661V304.5H650.5V366H609V304.5Z" fill="#9B8734" stroke="#9B8734"/>
    </symbol>
    <symbol id="play" viewBox="0 0 36 40" fill="none">
        <path d="M33.5 15.6699C36.8333 17.5944 36.8333 22.4056 33.5 24.3301L8 39.0526C4.66667 40.9771 0.500002 38.5714 0.500002 34.7224L0.500003 5.27757C0.500003 1.42857 4.66667 -0.97706 8 0.947441L33.5 15.6699Z" fill="white"/>
    </symbol>
    <symbol id="ball-text" viewBox="0 0 166 167" fill="none">
        <path d="M37.4229 86.5895C38.5078 87.4268 39.1446 88.5421 39.3333 89.9354C39.5221 91.3286 39.2049 92.5731 38.3819 93.6689C37.5446 94.7537 36.4293 95.3905 35.0361 95.5793C33.6428 95.768 32.4046 95.45 31.3214 94.6253C30.224 93.7897 29.5809 92.6753 29.3921 91.282C29.2034 89.8887 29.5268 88.6434 30.3624 87.5459C31.1854 86.4502 32.2936 85.808 33.6869 85.6192C35.0801 85.4305 36.3255 85.7539 37.4229 86.5895ZM36.4741 92.1825C36.8973 91.6267 37.0596 90.9847 36.961 90.2567C36.8624 89.5287 36.5352 88.9531 35.9793 88.5299C35.4235 88.1066 34.769 87.946 34.0159 88.0481C33.2628 88.1501 32.6746 88.479 32.2514 89.0349C31.8282 89.5907 31.6659 90.2326 31.7645 90.9606C31.8631 91.6887 32.1903 92.2643 32.7462 92.6875C33.3003 93.0982 33.9539 93.2525 34.7071 93.1505C35.4602 93.0484 36.0492 92.7258 36.4741 92.1825Z" fill="#B7D432"/>
        <path d="M29.6148 74.3831L31.9606 74.6029L31.6841 77.554L38.7969 78.2204L38.5683 80.6607L31.4555 79.9943L31.1754 82.9832L28.8297 82.7634L29.6148 74.3831Z" fill="#B7D432"/>
        <path d="M40.8166 69.9117C40.3575 71.3341 39.5279 72.3375 38.3278 72.9218C37.1315 73.494 35.8282 73.5525 34.4179 73.0973C32.8749 72.5993 31.7615 71.9871 31.0776 71.2606C30.3816 70.5302 29.9138 69.3609 29.6741 67.7529C29.6438 67.5169 29.6046 67.1848 29.5564 66.7566C29.4962 66.3246 29.4513 66.0306 29.4218 65.8746C29.3962 65.7066 29.3499 65.4788 29.2831 65.191C29.2163 64.9032 29.1441 64.6936 29.0668 64.5621C28.9813 64.4148 28.8675 64.2516 28.7256 64.0727C28.5837 63.8938 28.4159 63.7332 28.2223 63.5908L29.9439 62.0302C30.6286 62.4242 31.0864 62.9646 31.3173 63.6514C31.54 64.3222 31.6853 65.2742 31.7532 66.5073C31.8055 67.3761 31.926 68.0338 32.1145 68.4807C32.3031 68.9275 32.583 69.2974 32.9543 69.5903C32.4851 68.6935 32.4333 67.6785 32.799 66.5454C33.122 65.5449 33.7775 64.7715 34.7657 64.2253C35.7419 63.6752 36.8327 63.5947 38.0381 63.9837C39.2797 64.3845 40.1621 65.1351 40.6854 66.2357C41.2125 67.3243 41.2563 68.5496 40.8166 69.9117ZM37.5313 70.6882C38.0851 70.3744 38.4671 69.8921 38.6772 69.2412C38.8873 68.5902 38.8615 67.9896 38.5999 67.4393C38.3383 66.889 37.9001 66.5147 37.2853 66.3163C36.6705 66.1178 36.0961 66.1654 35.5622 66.4589C35.0162 66.7485 34.6362 67.2248 34.4222 67.8878C34.2315 68.4785 34.2472 69.0692 34.4691 69.6599C34.695 70.2386 35.1213 70.6291 35.7481 70.8314C36.387 71.0376 36.9814 70.9899 37.5313 70.6882Z" fill="#B7D432"/>
        <path d="M40.4385 60.2151C41.621 60.5727 42.6013 60.1359 43.3795 58.9045C43.8802 58.1121 43.9914 57.3433 43.7132 56.598L45.7325 55.5366C46.3775 57.053 46.2128 58.5822 45.2384 60.1241C44.3993 61.4519 43.3245 62.2636 42.0139 62.5592C40.7033 62.8547 39.4377 62.6168 38.217 61.8455C37.007 61.0808 36.2509 60.0486 35.9485 58.7487C35.6354 57.4421 35.8714 56.1677 36.6563 54.9256C37.4006 53.7477 38.4199 53.0358 39.7141 52.7898C41.0151 52.5331 42.2652 52.7837 43.4645 53.5415C43.7322 53.7107 43.9991 53.9168 44.265 54.1598L40.4385 60.2151ZM38.812 59.2322L41.4003 55.1365C40.7797 54.9091 40.2172 54.8983 39.7127 55.1039C39.2149 55.2988 38.8172 55.6318 38.5194 56.103C38.1676 56.6598 38.0212 57.2116 38.0802 57.7583C38.1286 58.2983 38.3725 58.7896 38.812 59.2322Z" fill="#B7D432"/>
        <path d="M42.6796 45.2674L41.2159 43.7227L45.2154 39.9327L46.6792 41.4774L42.6796 45.2674ZM47.3363 42.5299L48.6603 41.2753L55.1947 48.171L53.457 49.8177L49.7454 45.9009L50.216 52.8889L48.8921 54.1435L42.3576 47.2478L44.0953 45.6011L47.8069 49.5179L47.3363 42.5299Z" fill="#B7D432"/>
        <path d="M66.1706 31.6503L69.7733 40.4407L67.5757 41.3414L65.4717 36.2078L64.68 40.639L64.3987 40.7543L60.6929 38.1253L62.8113 43.294L60.6312 44.1875L57.0286 35.3971L59.2614 34.482L63.1127 37.2157L63.9379 32.5654L66.1706 31.6503Z" fill="#B7D432"/>
        <path d="M79.0402 29.1445L80.3154 38.5586L77.9431 38.8799L77.5452 35.9428L76.698 36.0575L74.9306 39.288L72.1252 39.668L74.0426 36.1296C73.4061 35.9602 72.8693 35.6303 72.4322 35.1398C72.0059 34.6352 71.7503 34.069 71.6652 33.4414C71.5462 32.5628 71.7572 31.7609 72.298 31.0357C72.8389 30.3105 73.6177 29.8791 74.6344 29.7414L79.0402 29.1445ZM75.116 31.8811C74.7646 31.9287 74.4841 32.0753 74.2745 32.321C74.0757 32.5525 74.0002 32.8439 74.0478 33.1954C74.0937 33.5343 74.2432 33.7888 74.4964 33.9591C74.7621 34.1276 75.0706 34.188 75.4221 34.1404L77.2672 33.8905L76.9612 31.6311L75.116 31.8811Z" fill="#B7D432"/>
        <path d="M88.7864 29.3906L91.2267 29.6192L90.3406 39.0778L87.9003 38.8491L88.1821 35.8413C87.4546 36.0021 86.6936 36.0453 85.899 35.9709C84.7514 35.8634 83.8579 35.4871 83.2187 34.842C82.592 34.198 82.3306 33.3212 82.4346 32.2114L82.7518 28.8252L85.1922 29.0538L84.9015 32.1562C84.8129 33.1021 85.355 33.63 86.5279 33.7398C87.2089 33.8036 87.8318 33.7411 88.3965 33.5523L88.7864 29.3906Z" fill="#B7D432"/>
        <path d="M97.073 38.0816L94.2997 42.7975L92.376 42.269L94.508 37.377L97.073 38.0816Z" fill="#B7D432"/>
        <path d="M111.833 37.4163L113.923 38.6954L108.966 46.7992L106.875 45.5201L108.451 42.9431C107.727 42.7674 107.025 42.4714 106.344 42.0549C105.361 41.4534 104.724 40.7223 104.434 39.8617C104.155 39.0077 104.306 38.1053 104.888 37.1545L106.662 34.2533L108.753 35.5324L107.127 38.1904C106.631 39.0008 106.886 39.7134 107.891 40.3281C108.474 40.6851 109.061 40.903 109.651 40.982L111.833 37.4163Z" fill="#B7D432"/>
        <path d="M123.127 46.7237L121.496 48.4243L119.357 46.373L114.412 51.5296L112.643 49.8333L117.587 44.6767L115.42 42.599L117.051 40.8985L123.127 46.7237Z" fill="#B7D432"/>
        <path d="M122.769 60.4038C121.431 60.1097 120.379 59.3729 119.614 58.1935C118.848 57.014 118.604 55.7532 118.881 54.411C119.175 53.0726 119.912 52.0207 121.091 51.2553C122.27 50.4899 123.526 50.249 124.857 50.5325C126.207 50.8198 127.264 51.5531 128.029 52.7325C128.794 53.912 129.034 55.1762 128.746 56.5253C128.47 57.8675 127.742 58.9213 126.562 59.6867C125.383 60.452 124.119 60.6911 122.769 60.4038ZM121.24 54.9409C121.095 55.6242 121.222 56.274 121.622 56.8903C122.022 57.5066 122.563 57.8875 123.247 58.0329C123.93 58.1784 124.59 58.0443 125.228 57.6306C125.866 57.2169 126.257 56.6684 126.403 55.9851C126.548 55.3018 126.421 54.652 126.021 54.0357C125.621 53.4194 125.079 53.0386 124.396 52.8931C123.72 52.7582 123.063 52.8976 122.425 53.3113C121.788 53.725 121.393 54.2682 121.24 54.9409Z" fill="#B7D432"/>
        <path d="M124.805 68.5487C124.329 67.1316 124.401 65.8316 125.02 64.6489C125.643 63.4782 126.657 62.6572 128.062 62.1861C129.599 61.6706 130.859 61.5021 131.84 61.6806C132.834 61.8551 133.905 62.5181 135.052 63.6697C135.217 63.8416 135.445 64.0856 135.738 64.4015C136.043 64.7134 136.254 64.9233 136.37 65.0312C136.491 65.1512 136.663 65.3071 136.888 65.499C137.113 65.6908 137.295 65.8167 137.435 65.8765C137.592 65.9443 137.78 66.0081 138.001 66.0678C138.221 66.1275 138.451 66.1571 138.692 66.1567L138.233 68.4347C137.448 68.5242 136.759 68.3612 136.165 67.9457C135.588 67.5381 134.906 66.8584 134.119 65.9065C133.561 65.2385 133.073 64.7808 132.656 64.5332C132.239 64.2856 131.795 64.1542 131.322 64.139C132.232 64.582 132.876 65.3679 133.255 66.4968C133.589 67.4936 133.521 68.5051 133.05 69.5314C132.591 70.5536 131.761 71.2661 130.56 71.6688C129.323 72.0836 128.167 72.0035 127.093 71.4286C126.022 70.8657 125.26 69.9058 124.805 68.5487ZM126.987 65.9732C126.728 66.5545 126.707 67.1694 126.924 67.8179C127.142 68.4664 127.519 68.9344 128.056 69.2218C128.594 69.5093 129.168 69.5503 129.781 69.3449C130.393 69.1396 130.827 68.7603 131.083 68.2071C131.35 67.6498 131.373 67.0409 131.152 66.3804C130.954 65.7919 130.591 65.3259 130.062 64.9824C129.536 64.6509 128.961 64.5898 128.337 64.7992C127.7 65.0126 127.25 65.404 126.987 65.9732Z" fill="#B7D432"/>
        <path d="M133.789 78.2009C133.855 79.2755 133.612 80.1599 133.058 80.8542C132.517 81.5476 131.76 81.9245 130.787 81.9848C129.813 82.0451 129.009 81.7649 128.374 81.1443C127.752 80.5229 127.408 79.6749 127.341 78.6003L127.076 74.3145L136.557 73.7272L136.709 76.1735L133.675 76.3614L133.789 78.2009ZM137.109 82.6401L137.261 85.0864L127.779 85.6738L127.628 83.2274L137.109 82.6401ZM129.504 78.4854C129.525 78.8267 129.637 79.099 129.84 79.3021C130.057 79.5172 130.323 79.6149 130.639 79.5953C130.955 79.5758 131.207 79.4459 131.395 79.2058C131.584 78.9784 131.668 78.694 131.647 78.3526L131.532 76.4942L129.389 76.6269L129.504 78.4854Z" fill="#B7D432"/>
        <path d="M129.92 98.5439C129.199 99.3349 128.34 99.5836 127.343 99.2901C126.566 99.061 126.011 98.5475 125.678 97.7496C125.345 96.9518 125.351 95.9696 125.694 94.8032C126.238 92.9563 127.338 91.9135 128.993 91.6748L129.559 93.9214C128.647 93.9696 128.049 94.4736 127.767 95.4335C127.638 95.8709 127.624 96.2301 127.726 96.5111C127.825 96.8042 128.02 96.9937 128.312 97.0796C128.871 97.2443 129.256 96.9682 129.467 96.2513L129.848 94.9573L131.853 95.5479L131.563 96.5321C131.355 97.2368 131.531 97.6715 132.09 97.8361C132.357 97.9149 132.6 97.8743 132.819 97.7142C133.038 97.5542 133.197 97.3041 133.298 96.9639C133.53 96.1741 133.314 95.4964 132.649 94.9306L134.301 93.3573C135.494 94.4616 135.843 95.852 135.35 97.5288C135.042 98.5737 134.531 99.3212 133.817 99.7712C133.112 100.237 132.383 100.359 131.63 100.137C130.743 99.8756 130.173 99.3446 129.92 98.5439Z" fill="#B7D432"/>
        <path d="M129.125 111.228L127.891 113.346L119.681 108.566L120.915 106.448L121.883 107.012C121.454 105.912 121.574 104.787 122.243 103.638C122.88 102.543 123.844 101.844 125.135 101.54C126.431 101.254 127.686 101.464 128.901 102.172C130.116 102.879 130.913 103.864 131.293 105.125C131.677 106.404 131.55 107.591 130.913 108.686C130.243 109.835 129.324 110.494 128.156 110.664L129.125 111.228ZM125.62 103.955C124.944 104.134 124.416 104.551 124.033 105.208C123.651 105.865 123.549 106.531 123.727 107.206C123.91 107.899 124.341 108.443 125.02 108.838C125.698 109.233 126.379 109.336 127.06 109.147C127.747 108.975 128.281 108.561 128.664 107.904C129.046 107.247 129.142 106.578 128.953 105.896C128.775 105.22 128.346 104.685 127.668 104.29C126.989 103.895 126.306 103.783 125.62 103.955Z" fill="#B7D432"/>
        <path d="M118.553 123.93L111.842 117.205L113.577 115.474L118.664 120.571L121.34 117.9L116.254 112.803L117.989 111.072L124.699 117.797L118.553 123.93Z" fill="#B7D432"/>
        <path d="M109.567 130.155L108.008 131.101L103.079 122.979L105.126 121.737L107.925 126.351L108.943 119.421L110.503 118.475L115.431 126.597L113.384 127.839L110.585 123.226L109.567 130.155Z" fill="#B7D432"/>
        <path d="M96.7943 125.12C98.1599 124.691 99.4461 124.792 100.653 125.422C101.848 126.056 102.658 127.05 103.083 128.403C103.508 129.757 103.411 131.035 102.793 132.238C102.163 133.445 101.165 134.263 99.7996 134.692C98.9174 134.969 98.0474 135.009 97.1895 134.814C96.3316 134.619 95.6034 134.223 95.0048 133.628L96.647 131.818C96.9459 132.136 97.3168 132.345 97.7598 132.444C98.1906 132.548 98.6356 132.528 99.0949 132.384C99.7958 132.164 100.302 131.746 100.613 131.13C100.928 130.527 100.972 129.863 100.744 129.137C100.52 128.424 100.105 127.904 99.4975 127.577C98.8941 127.262 98.2419 127.215 97.541 127.435C97.0697 127.583 96.685 127.817 96.3869 128.136C96.0806 128.471 95.8956 128.854 95.832 129.286L93.4374 128.763C93.6124 127.925 93.9941 127.175 94.5825 126.512C95.1748 125.861 95.9121 125.397 96.7943 125.12Z" fill="#B7D432"/>
        <path d="M84.2857 137.083L81.8369 137.188L81.4305 127.697L83.8793 127.592L83.9272 128.712C84.6217 127.757 85.6333 127.251 86.9621 127.194C88.2276 127.14 89.3365 127.574 90.2888 128.497C91.2291 129.433 91.7293 130.603 91.7894 132.008C91.8496 133.412 91.451 134.615 90.5936 135.615C89.7242 136.629 88.6567 137.162 87.3912 137.217C86.0624 137.273 85.0113 136.856 84.2377 135.963L84.2857 137.083ZM88.5174 130.208C88.0027 129.736 87.3658 129.516 86.6065 129.548C85.8471 129.581 85.2313 129.854 84.7589 130.369C84.2743 130.897 84.0489 131.553 84.0825 132.338C84.1161 133.122 84.3965 133.75 84.9239 134.222C85.4391 134.707 86.0764 134.934 86.8357 134.901C87.595 134.869 88.2105 134.589 88.6824 134.061C89.1548 133.547 89.3742 132.897 89.3407 132.112C89.3071 131.328 89.0327 130.693 88.5174 130.208Z" fill="#B7D432"/>
        <path d="M69.0268 135.354L69.49 133.044L72.3961 133.626L73.8007 126.622L76.2038 127.104L74.7993 134.108L77.7427 134.698L77.2795 137.008L69.0268 135.354Z" fill="#B7D432"/>
        <path d="M63.2976 130.061C62.3074 129.638 61.6263 129.024 61.2544 128.217C60.8774 127.423 60.8805 126.577 61.2635 125.68C61.6465 124.783 62.2578 124.19 63.0974 123.901C63.9319 123.624 64.8443 123.697 65.8345 124.12L69.7835 125.806L66.0527 134.543L63.7987 133.58L64.9925 130.785L63.2976 130.061ZM64.9664 126.104C64.6519 125.97 64.3583 125.948 64.0856 126.038C63.7963 126.135 63.5895 126.329 63.4652 126.62C63.3408 126.912 63.3437 127.195 63.4738 127.471C63.5922 127.742 63.8087 127.945 64.1232 128.079L65.8356 128.81L66.6788 126.836L64.9664 126.104Z" fill="#B7D432"/>
        <path d="M57.2532 119.02C58.4075 119.867 59.0882 120.963 59.2953 122.308C59.4922 123.646 59.1712 124.888 58.3323 126.032C57.4934 127.176 56.4063 127.855 55.0709 128.07C53.7253 128.277 52.4754 127.957 51.3211 127.111C50.5754 126.564 50.0272 125.887 49.6765 125.08C49.3257 124.273 49.213 123.452 49.3382 122.617L51.7693 122.869C51.6903 123.298 51.7418 123.72 51.9236 124.136C52.0952 124.545 52.3751 124.891 52.7633 125.176C53.3558 125.61 53.9921 125.771 54.6724 125.657C55.3452 125.553 55.9063 125.195 56.3557 124.582C56.7976 123.98 56.9705 123.337 56.8745 122.654C56.7709 121.981 56.4229 121.427 55.8305 120.993C55.4321 120.701 55.016 120.529 54.5822 120.478C54.1307 120.43 53.7123 120.508 53.3269 120.712L52.3298 118.473C53.1088 118.118 53.9396 117.981 54.8221 118.062C55.6972 118.154 56.5075 118.474 57.2532 119.02Z" fill="#B7D432"/>
        <path d="M40.0084 115.872L47.2106 109.677L48.7717 111.492L46.5246 113.425L47.0822 114.073L50.7541 113.797L52.6002 115.943L48.5883 116.261C48.7928 116.887 48.8083 117.517 48.6349 118.151C48.4436 118.783 48.1079 119.306 47.6278 119.719C46.9556 120.297 46.1681 120.557 45.2653 120.498C44.3626 120.439 43.5767 120.021 42.9076 119.243L40.0084 115.872ZM44.4402 117.674C44.6715 117.943 44.9473 118.098 45.2674 118.14C45.5698 118.181 45.8554 118.086 46.1243 117.854C46.3835 117.631 46.5157 117.367 46.5206 117.062C46.5173 116.748 46.4001 116.456 46.1688 116.187L44.9546 114.775L43.226 116.262L44.4402 117.674Z" fill="#B7D432"/>
    </symbol>
    <symbol id="studio" viewBox="0 0 123 36" fill="none">
        <path d="M0 27.0222V1.79445C1.90911 1.41358 4.4156 1.22314 7.51948 1.22314C10.9552 1.22314 13.4839 1.70595 15.1053 2.67157C17.1456 3.76678 18.1666 5.45937 18.1681 7.74936C18.1719 8.90588 17.7964 10.0318 17.099 10.9544C16.3862 11.9216 15.3432 12.6723 13.9698 13.2064V13.2823C15.4099 13.6367 16.704 14.4304 17.6727 15.5533C18.6283 16.6888 19.1344 18.1353 19.095 19.6189C19.1169 20.6749 18.8858 21.7208 18.421 22.6693C17.9563 23.6178 17.2713 24.4414 16.4234 25.0712C14.4605 26.6279 11.0856 27.4054 6.29864 27.4038C4.19269 27.4265 2.0878 27.299 0 27.0222ZM5.76288 5.64902V11.6039H7.6712C9.19786 11.6039 10.3618 11.3179 11.1631 10.7458C11.5428 10.4938 11.8525 10.1496 12.0631 9.74534C12.2737 9.34113 12.3784 8.89011 12.3673 8.43445C12.3673 6.45107 10.9932 5.45937 8.24488 5.45937C7.41313 5.43265 6.58093 5.49624 5.76288 5.64902ZM5.76288 15.7643V23.0159C6.50934 23.1137 7.26242 23.1518 8.01494 23.1297C9.46573 23.1297 10.6558 22.8247 11.585 22.2146C12.5143 21.6046 12.9781 20.6627 12.9766 19.3889C12.9766 18.1673 12.493 17.2578 11.5258 16.6604C10.5586 16.063 9.29979 15.7643 7.74943 15.7643H5.76288Z" fill="white"/>
        <path d="M25.7635 6.18493H25.7232C25.3225 6.20057 24.923 6.13397 24.5491 5.98923C24.1752 5.84449 23.835 5.62469 23.5493 5.34337C23.2772 5.07674 23.0624 4.75733 22.9181 4.40472C22.7738 4.05211 22.703 3.67374 22.7101 3.29282C22.6983 2.90533 22.7686 2.51973 22.9165 2.1614C23.0644 1.80306 23.2866 1.48011 23.5683 1.21382C23.8676 0.933797 24.2195 0.716041 24.6037 0.5732C24.9879 0.430359 25.3966 0.365279 25.8061 0.381742C26.2083 0.362674 26.6102 0.425782 26.9872 0.567213C27.3642 0.708643 27.7085 0.925429 27.9989 1.20433C28.5498 1.75947 28.8577 2.51072 28.8547 3.29282C28.8627 3.67548 28.7921 4.05572 28.6474 4.41004C28.5026 4.76436 28.2868 5.08524 28.0131 5.35285C27.7145 5.63726 27.3609 5.85775 26.9741 6.00082C26.5873 6.14389 26.1753 6.20653 25.7635 6.18493ZM28.6627 27.1361H22.8619V8.47491H28.6627V27.1361Z" fill="white"/>
        <path d="M50.9889 14.0458V24.4266C50.9889 28.3459 50.0351 31.1448 48.1276 32.8232C46.3718 34.3498 43.8527 35.1131 40.5702 35.1131C37.8219 35.1131 35.5833 34.643 33.8543 33.7026L34.9993 29.2744C36.646 30.2246 38.5174 30.7158 40.4185 30.6967C41.8693 30.6967 43.0395 30.2898 43.9293 29.4759C44.8191 28.662 45.2639 27.4277 45.2639 25.773V24.5878H45.1881C44.017 26.1903 42.3378 26.9915 40.1506 26.9915C37.8353 26.9915 35.9389 26.1452 34.4612 24.4526C32.9835 22.76 32.2455 20.5783 32.2471 17.9075C32.2471 14.9553 33.0681 12.5768 34.7101 10.772C36.3521 8.9672 38.3561 8.06322 40.7219 8.06006C43.0356 8.06006 44.74 8.95061 45.8352 10.7317H45.9111L46.1031 8.48202H51.1406C51.041 10.1051 50.9905 11.9597 50.9889 14.0458ZM45.1881 18.8178V16.0703C45.1879 15.7109 45.1497 15.3525 45.0743 15.0011C44.9083 14.2734 44.5137 13.6179 43.9483 13.1307C43.3853 12.6675 42.6739 12.4233 41.9451 12.4433C40.8499 12.4433 39.9404 12.9174 39.2166 13.8656C38.4928 14.8138 38.1316 16.1098 38.1332 17.7534C38.1332 19.2042 38.4698 20.3895 39.1431 21.3092C39.4514 21.7544 39.8664 22.1152 40.35 22.3587C40.8337 22.6022 41.3707 22.7206 41.9119 22.7031C42.6158 22.7153 43.3027 22.4861 43.8582 22.0536C44.4113 21.6347 44.8145 21.0486 45.0079 20.3823C45.1474 19.8731 45.2082 19.3454 45.1881 18.8178Z" fill="white"/>
        <path d="M55.647 27.136V0H61.4478V27.136H55.647Z" fill="white"/>
        <path d="M64.0413 8.47485H70.4916L73.2794 17.6727C73.6856 19.0714 73.9906 20.229 74.1945 21.1456H74.3082C74.4102 20.7379 74.569 20.0907 74.7824 19.1994C74.9957 18.308 75.119 17.777 75.1451 17.6348L77.4327 8.47485H83.6555L79.3078 20.7639C78.0435 24.3277 76.9119 27.0144 75.9131 28.8239C74.9143 30.6335 73.8578 32.0305 72.7437 33.0151C71.2005 34.4542 69.2309 35.352 67.1325 35.573L65.9116 30.6872C66.796 30.482 67.6451 30.1473 68.4316 29.6939C69.4358 29.1552 70.2717 28.3496 70.8472 27.366C71.0223 27.1187 71.1279 26.8289 71.153 26.5268C71.1384 26.1981 71.0578 25.8756 70.9159 25.5786L64.0413 8.47485Z" fill="white"/>
        <path d="M96.6866 33.6361C100.222 33.6361 103.087 30.7705 103.087 27.2355C103.087 23.7006 100.222 20.835 96.6866 20.835C93.1516 20.835 90.286 23.7006 90.286 27.2355C90.286 30.7705 93.1516 33.6361 96.6866 33.6361Z" fill="white"/>
        <path d="M41.9261 18.9384C42.8426 18.9384 43.5855 18.1955 43.5855 17.279C43.5855 16.3626 42.8426 15.6196 41.9261 15.6196C41.0097 15.6196 40.2667 16.3626 40.2667 17.279C40.2667 18.1955 41.0097 18.9384 41.9261 18.9384Z" fill="white"/>
        <path d="M113.044 20.1238C118.542 20.1238 123 15.6662 123 10.1674C123 4.66859 118.542 0.210938 113.044 0.210938C107.545 0.210938 103.087 4.66859 103.087 10.1674C103.087 15.6662 107.545 20.1238 113.044 20.1238Z" fill="white"/>
    </symbol>
    <symbol id="popup-close" viewBox="0 0 20 20" fill="none">
        <path d="M15.8738 13.579L13.307 16.1458L9.80678 12.6457L6.3066 16.1458L3.7398 13.579L7.23998 10.0789L3.76102 6.59989L6.32781 4.03309L9.80678 7.51206L13.2857 4.03309L15.8525 6.59989L12.3736 10.0789L15.8738 13.579Z" fill="black"/>
    </symbol>
    <symbol id="fb" width="24" height="25" viewBox="0 0 24 25" fill="none">
        <path d="M9.19765 22.1028H13.1976V14.0929H16.8018L17.1976 10.1126H13.1976V8.10278C13.1976 7.5505 13.6454 7.10278 14.1976 7.10278H17.1976V3.10278H14.1976C11.4362 3.10278 9.19765 5.34136 9.19765 8.10278V10.1126H7.19765L6.80176 14.0929H9.19765V22.1028Z" fill="black"/>
    </symbol>
    <symbol id="inst" width="24" height="25" viewBox="0 0 24 25" fill="none">
        <path d="M12 9.35278C10.2051 9.35278 8.75 10.8079 8.75 12.6028C8.75 14.3977 10.2051 15.8528 12 15.8528C13.7949 15.8528 15.25 14.3977 15.25 12.6028C15.25 10.8079 13.7949 9.35278 12 9.35278Z" fill="black"/>
        <path fill-rule="evenodd" clip-rule="evenodd" d="M6.76924 3.6843C10.2174 3.29892 13.7821 3.29892 17.2302 3.6843C19.1286 3.89647 20.6598 5.39225 20.8826 7.2973C21.2949 10.8223 21.2949 14.3833 20.8826 17.9083C20.6598 19.8134 19.1286 21.3092 17.2302 21.5213C13.7821 21.9067 10.2174 21.9067 6.76924 21.5213C4.87084 21.3092 3.33965 19.8134 3.11683 17.9083C2.70455 14.3833 2.70455 10.8223 3.11683 7.2973C3.33965 5.39225 4.87084 3.89647 6.76924 3.6843ZM16.9997 6.60283C16.4474 6.60283 15.9997 7.05055 15.9997 7.60283C15.9997 8.15511 16.4474 8.60283 16.9997 8.60283C17.552 8.60283 17.9997 8.15511 17.9997 7.60283C17.9997 7.05055 17.552 6.60283 16.9997 6.60283ZM7.2497 12.6028C7.2497 9.97948 9.37635 7.85283 11.9997 7.85283C14.6231 7.85283 16.7497 9.97948 16.7497 12.6028C16.7497 15.2262 14.6231 17.3528 11.9997 17.3528C9.37635 17.3528 7.2497 15.2262 7.2497 12.6028Z" fill="black"/>
    </symbol>
    <symbol id="vk"  width="24" height="25" viewBox="0 0 24 25" fill="none">
        <path d="M21.5035 18.9838H19.222C18.3588 18.9838 18.0992 18.2848 16.5511 16.7367C15.2 15.4341 14.6292 15.2714 14.2868 15.2714C13.8145 15.2714 13.6847 15.4012 13.6847 16.0533V18.1049C13.6847 18.6601 13.5049 18.9853 12.0553 18.9853C10.6485 18.8908 9.28422 18.4634 8.07493 17.7383C6.86564 17.0132 5.84592 16.0112 5.09975 14.8148C3.32828 12.6099 2.0957 10.0221 1.5 7.2572C1.5 6.91474 1.62979 6.60512 2.28187 6.60512H4.56182C5.14822 6.60512 5.35933 6.86627 5.5892 7.46831C6.69633 10.7272 8.58534 13.5607 9.35158 13.5607C9.64556 13.5607 9.77379 13.4309 9.77379 12.6975V9.34168C9.67684 7.81077 8.86369 7.68098 8.86369 7.12741C8.87413 6.9814 8.94104 6.84521 9.05022 6.7477C9.1594 6.6502 9.30227 6.59906 9.44853 6.60512H13.0326C13.5221 6.60512 13.6847 6.84907 13.6847 7.43547V11.9641C13.6847 12.4536 13.8958 12.6162 14.0428 12.6162C14.3368 12.6162 14.5635 12.4536 15.1015 11.9156C16.2569 10.5066 17.2009 8.93679 17.9037 7.25564C17.9756 7.0537 18.1115 6.88082 18.2908 6.76336C18.4701 6.64591 18.6829 6.59033 18.8967 6.60512H21.1782C21.8616 6.60512 22.007 6.94758 21.8616 7.43547C21.032 9.29388 20.0055 11.058 18.7997 12.6975C18.5542 13.0728 18.4557 13.2683 18.7997 13.7077C19.0265 14.0501 19.8256 14.7179 20.3635 15.3527C21.1452 16.1325 21.7944 17.0347 22.2853 18.0236C22.4808 18.6585 22.154 18.9838 21.5035 18.9838Z" fill="black"/>
    </symbol>
    <symbol id="yt" width="24" height="25" viewBox="0 0 24 25" fill="none">
        <path fill-rule="evenodd" clip-rule="evenodd" d="M6.989 5.49333C10.3247 5.23236 13.6756 5.23236 17.0113 5.49333L19.252 5.66864C20.5001 5.76628 21.5211 6.70167 21.7274 7.93644C22.2436 11.0259 22.2436 14.1797 21.7274 17.2692C21.5211 18.5039 20.5001 19.4393 19.252 19.537L17.0113 19.7123C13.6756 19.9732 10.3247 19.9732 6.989 19.7123L4.7483 19.537C3.50023 19.4393 2.47921 18.5039 2.2729 17.2692C1.75669 14.1797 1.75669 11.0259 2.2729 7.93644C2.47921 6.70167 3.50023 5.76628 4.7483 5.66864L6.989 5.49333ZM10.0001 15.0729V10.1327C10.0001 9.89948 10.2545 9.75544 10.4544 9.87542L14.5714 12.3456C14.7656 12.4621 14.7656 12.7435 14.5714 12.86L10.4544 15.3302C10.2545 15.4502 10.0001 15.3061 10.0001 15.0729Z" fill="black"/>
    </symbol>
</svg>
